<svg width="32" height="32" viewBox="0 0 32 32" fill="none" xmlns="http://www.w3.org/2000/svg">
<rect width="32" height="32" rx="4" fill="#000011"/>
<path d="M16.7046 4H16.2576C15.3637 4 13.6503 8.20089 12.9053 10.3013V15.7335L10.2235 19.2101L10 22.904L14.0228 20.7311L14.4697 21.8176H18.4925L19.1629 20.7311C20.0569 21.383 21.9789 22.7302 22.5152 22.904C23.0516 23.0779 23.0367 22.9764 22.9622 22.904C22.8877 21.9624 22.7387 19.9924 22.7387 19.6447C22.7387 19.297 22.5897 18.9204 22.5152 18.7756L19.8334 15.7335C19.9079 14.0677 20.0122 10.6055 19.8334 10.0841C19.1182 7.30277 17.4495 4.86915 16.7046 4Z" fill="white"/>
<ellipse cx="16.5" cy="11" rx="1.5" ry="2" fill="#15222E"/>
<path d="M18.25 23H14.75C14.5 23.451 14 24.5335 14 25.2551C14 26.1572 16 30.2165 16.5 29.991C17 29.7654 19 26.1572 19 25.2551C19 24.5335 18.5 23.451 18.25 23Z" fill="white"/>
<path d="M17.55 23H15.45C15.3 23.2577 15 23.8763 15 24.2887C15 24.8041 16.2 27.1237 16.5 26.9948C16.8 26.866 18 24.8041 18 24.2887C18 23.8763 17.7 23.2577 17.55 23Z" fill="#15222E"/>
</svg>
